<svg version="1.0" xmlns="http://www.w3.org/2000/svg" width="20" height="20" viewBox="0 0 256 256"><path fill="#0077f0" d="M70 24c-5 0-12 2-14 3-11 3-20 11-25 21s-5 12-6 70c0 69 1 79 8 90l2 3 23-34c12-19 24-35 25-35l4-1c3 0 5 2 13 14l6 9 23-33c22-34 24-35 29-34 2 1 10 12 36 51l34 49c2-4 3-22 3-70 0-55-1-66-4-76-5-12-17-22-30-26l-62-2-65 1zm20 39l5 2 4 2c2 1 2 2 2 12l-1 12H62l-1-12c0-10 0-11 2-12l4-2 5-2c2-3 3-3 9-3s7 0 9 3z"/><path fill="#0077f0" d="M76 68c-5 2-7 11-3 16 5 5 11 5 15 0 4-3 4-10 1-14-3-2-9-4-13-2zm9 5c2 1 3 6 0 8l-4 2c-4 0-6-2-6-6 0-3 3-6 6-6l4 2zM93 71l2 1 1-1-1-1-2 1z"/></svg>